<?xml version="1.0" encoding="iso-8859-1"?>
<!-- Uploaded to: SVG Repo, www.svgrepo.com, Generator: SVG Repo Mixer Tools -->
<svg height="55px" width="55px" version="1.1" id="Layer_1" xmlns="http://www.w3.org/2000/svg" xmlns:xlink="http://www.w3.org/1999/xlink" 
	 viewBox="0 0 512.002 512.002" xml:space="preserve">
<path style="fill:#FF6464;" d="M497.583,160.356v63.775H297.201c-37.518,0-73.912,11.636-105.302,32.212
	c-3.85,2.523-7.873,4.83-12.025,6.878c-15.299,7.57-32.529,11.824-50.755,11.824c-14.405,0-28.175-2.653-40.878-7.512
	c-43.632-16.64-74.489-59.176-73.811-108.821C15.295,97.33,65.098,47.08,126.466,45.696c24.383-0.562,47.078,6.503,65.895,18.961
	c31.131,20.619,67.496,31.909,104.841,31.909h200.381V160.356z M177.466,160.356c0-26.704-21.643-48.361-48.347-48.361
	s-48.361,21.657-48.361,48.361s21.657,48.347,48.361,48.347S177.466,187.06,177.466,160.356z"/>
<path style="fill:#9DA6BA;" d="M179.874,378.358v42.161c0,25.305-20.504,45.824-45.809,45.824s-45.824-20.518-45.824-45.824V267.533
	c12.703,4.859,26.473,7.512,40.878,7.512c18.226,0,35.456-4.254,50.755-11.824v68.534L179.874,378.358L179.874,378.358z"/>
<path style="fill:#FFA8A8;" d="M129.119,111.995c26.704,0,48.347,21.657,48.347,48.361s-21.643,48.347-48.347,48.347
	s-48.361-21.643-48.361-48.347S102.415,111.995,129.119,111.995z"/>
<path d="M199.802,268.401c29.796-19.529,63.476-29.852,97.399-29.852h200.381c7.962,0,14.419-6.457,14.419-14.419V96.565
	c0-7.962-6.457-14.419-14.419-14.419H297.201c-34.229,0-67.731-10.204-96.88-29.513c-22.024-14.581-47.661-21.979-74.18-21.355
	C92.711,32.031,61.238,45.624,37.52,69.552C13.804,93.478,0.484,125.07,0.012,158.513c-0.694,50.647,28.604,97.072,73.808,118.526
	v143.478c0,33.219,27.024,60.243,60.243,60.243c33.21,0,60.228-27.024,60.228-60.243v-27.742h8.003
	c7.962,0,14.419-6.457,14.419-14.419c0-7.962-6.457-14.419-14.419-14.419h-8.003v-17.763h8.003c7.962,0,14.419-6.457,14.419-14.419
	c0-7.962-6.457-14.419-14.419-14.419h-8.003v-45.532C196.154,270.712,197.997,269.585,199.802,268.401z M28.847,158.914
	c0.751-53.278,44.687-97.603,97.95-98.804c0.789-0.019,1.577-0.027,2.365-0.027c19.753,0,38.805,5.716,55.238,16.595
	c33.885,22.443,72.893,34.307,112.802,34.307h185.962v34.952H362.233c-7.962,0-14.419,6.457-14.419,14.419
	c0,7.962,6.457,14.419,14.419,14.419h120.931v34.936H297.201c-39.556,0-78.701,11.955-113.207,34.573
	c-3.391,2.222-6.924,4.242-10.517,6.014c-13.848,6.853-28.773,10.328-44.36,10.328c-12.325,0-24.345-2.208-35.739-6.566
	C54.206,239.122,28.275,200.882,28.847,158.914z M165.455,420.517c0,17.317-14.082,31.405-31.39,31.405
	c-17.317,0-31.405-14.089-31.405-31.405V286.715c8.651,1.807,17.492,2.75,26.459,2.75c12.48,0,24.635-1.736,36.336-5.172
	L165.455,420.517L165.455,420.517z"/>
<path d="M191.885,160.356c0-7.962-6.457-14.419-14.419-14.419c-7.962,0-14.419,6.457-14.419,14.419
	c0,18.709-15.221,33.928-33.928,33.928c-18.714,0-33.941-15.221-33.941-33.928c0-18.716,15.227-33.942,33.941-33.942
	c7.962,0,14.419-6.457,14.419-14.419s-6.457-14.419-14.419-14.419c-34.617,0-62.779,28.163-62.779,62.781
	c0,34.61,28.162,62.766,62.779,62.766C163.727,223.122,191.885,194.966,191.885,160.356z"/>
<path d="M305.751,174.775h7.21c7.962,0,14.419-6.457,14.419-14.419s-6.457-14.419-14.419-14.419h-7.21
	c-7.962,0-14.419,6.457-14.419,14.419S297.788,174.775,305.751,174.775z"/>
</svg>