<?xml version="1.0" encoding="iso-8859-1"?>
<!-- Uploaded to: SVG Repo, www.svgrepo.com, Generator: SVG Repo Mixer Tools -->
<svg height="55px" width="55px" version="1.1" id="Layer_1" xmlns="http://www.w3.org/2000/svg" xmlns:xlink="http://www.w3.org/1999/xlink" 
	 viewBox="0 0 512 512" xml:space="preserve">
<path style="fill:#9DA6BA;" d="M427.445,429.604v49.888c0,11.54-9.358,20.898-20.898,20.898H105.453
	c-11.54,0-20.898-9.358-20.898-20.898v-49.888H427.445z"/>
<path style="fill:#E1EAF6;" d="M427.445,118.422v311.182H84.555V118.422H427.445z M372.68,272.834
	c0-32.229-13.061-61.394-34.18-82.501c-21.119-21.119-50.283-34.18-82.5-34.18c-64.435,0-116.68,52.245-116.68,116.68
	s52.245,116.68,116.68,116.68c32.229,0,61.394-13.061,82.512-34.18C359.619,334.228,372.68,305.052,372.68,272.834z"/>
<path style="fill:#9DA6BA;" d="M427.445,32.508v85.914H84.555V32.508c0-11.54,9.358-20.898,20.898-20.898h301.093
	C418.087,11.61,427.445,20.968,427.445,32.508z M384.29,83.987V45.279h-54.567v38.708H384.29z M275.354,64.633
	c0-10.693-8.661-19.354-19.354-19.354c-10.693,0-19.354,8.661-19.354,19.354c0,10.681,8.661,19.354,19.354,19.354
	S275.354,75.314,275.354,64.633z"/>
<rect x="329.723" y="45.279" style="fill:#94D8F2;" width="55" height="55"/>
<path style="fill:#5A5D6F;" d="M338.5,190.334c21.119,21.107,34.18,50.271,34.18,82.501c0,32.218-13.061,61.394-34.168,82.5
	l-34.621-34.609c12.26-12.26,19.841-29.187,19.841-47.891s-7.581-35.631-19.841-47.891L338.5,190.334z"/>
<path style="fill:#9DA6BA;" d="M303.891,320.726l34.621,34.609c-21.119,21.119-50.283,34.18-82.512,34.18
	c-64.435,0-116.68-52.245-116.68-116.68s52.245-116.68,116.68-116.68c32.218,0,61.382,13.061,82.5,34.18l-34.609,34.609
	c-12.249-12.249-29.187-19.83-47.891-19.83c-37.396,0-67.721,30.314-67.721,67.721s30.325,67.721,67.721,67.721
	C274.704,340.555,291.643,332.974,303.891,320.726z"/>
<path style="fill:#94D8F2;" d="M303.891,224.943c12.26,12.26,19.841,29.187,19.841,47.891s-7.581,35.631-19.841,47.891
	c-12.249,12.249-29.187,19.83-47.891,19.83c-37.396,0-67.721-30.314-67.721-67.721s30.325-67.721,67.721-67.721
	C274.704,205.113,291.643,212.695,303.891,224.943z"/>
<path style="fill:#5A5D6F;" d="M256,45.279c10.693,0,19.354,8.661,19.354,19.354c0,10.681-8.661,19.354-19.354,19.354
	c-10.693,0-19.354-8.673-19.354-19.354C236.646,53.94,245.307,45.279,256,45.279z"/>
<path d="M439.055,479.492V32.508C439.055,14.583,424.471,0,406.547,0H105.453C87.529,0,72.945,14.583,72.945,32.508v446.984
	c0,17.925,14.583,32.508,32.508,32.508h301.093C424.471,512,439.055,497.417,439.055,479.492z M105.453,23.22h301.093
	c5.121,0,9.288,4.167,9.288,9.288v74.304h-8.644c-6.411,0-11.61,5.199-11.61,11.61s5.199,11.61,11.61,11.61h8.644v287.962H96.165
	V130.032h239.044c6.411,0,11.61-5.199,11.61-11.61s-5.199-11.61-11.61-11.61H96.165V32.508
	C96.165,27.387,100.332,23.22,105.453,23.22z M406.547,488.78H105.453c-5.121,0-9.288-4.167-9.288-9.288v-38.278h319.669v38.278
	C415.835,484.613,411.668,488.78,406.547,488.78z"/>
<path d="M373.909,106.812h-3.095c-6.411,0-11.61,5.199-11.61,11.61s5.199,11.61,11.61,11.61h3.095c6.411,0,11.61-5.199,11.61-11.61
	S380.32,106.812,373.909,106.812z"/>
<path d="M256,95.597c17.074,0,30.964-13.89,30.964-30.964S273.074,33.669,256,33.669s-30.964,13.89-30.964,30.964
	S238.926,95.597,256,95.597z M256,56.889c4.27,0,7.744,3.474,7.744,7.744s-3.474,7.744-7.744,7.744s-7.744-3.474-7.744-7.744
	S251.73,56.889,256,56.889z"/>
<path d="M329.723,95.597h54.567c6.411,0,11.61-5.199,11.61-11.61V45.279c0-6.411-5.199-11.61-11.61-11.61h-54.567
	c-6.411,0-11.61,5.199-11.61,11.61v38.708C318.113,90.398,323.312,95.597,329.723,95.597z M341.333,56.889h31.347v15.488h-31.347
	V56.889z"/>
<path d="M346.71,182.126L346.71,182.126L346.71,182.126c-0.001-0.001-0.002-0.002-0.002-0.002
	c-24.235-24.232-56.449-37.579-90.708-37.579c-70.74,0-128.29,57.551-128.29,128.29S185.26,401.125,256,401.125
	c34.269,0,66.488-13.347,90.721-37.58l0.001-0.001l0,0l0,0c24.225-24.225,37.568-56.441,37.568-90.709
	C384.29,238.562,370.945,206.348,346.71,182.126z M338.049,338.455l-18.332-18.326c10.14-13.601,15.626-30.027,15.626-47.294
	c0-17.269-5.486-33.696-15.627-47.297l18.325-18.325c14.913,18.562,23.03,41.46,23.03,65.622
	C361.07,296.993,352.956,319.891,338.049,338.455z M150.93,272.834c0-57.935,47.135-105.07,105.07-105.07
	c24.151,0,47.049,8.118,65.62,23.031l-25.938,25.938c-4.534,4.534-4.534,11.885,0,16.42c10.602,10.602,16.441,24.694,16.441,39.682
	c0,14.984-5.836,29.074-16.434,39.675c-0.002,0.002-0.006,0.005-0.008,0.008c-0.002,0.002-0.005,0.005-0.007,0.007
	c-10.595,10.589-24.684,16.421-39.674,16.421c-30.939,0-56.111-25.172-56.111-56.111s25.172-56.111,56.111-56.111
	c6.411,0,11.61-5.199,11.61-11.61c0-6.411-5.199-11.61-11.61-11.61c-43.744,0-79.331,35.587-79.331,79.331
	s35.587,79.331,79.331,79.331c17.272,0,33.699-5.482,47.297-15.618l18.332,18.326c-18.569,14.914-41.471,23.031-65.629,23.031
	C198.065,377.905,150.93,330.769,150.93,272.834z"/>
<path d="M384.29,452.789h-24.184c-6.411,0-11.61,5.199-11.61,11.61c0,6.411,5.199,11.61,11.61,11.61h24.184
	c6.411,0,11.61-5.199,11.61-11.61C395.9,457.988,390.701,452.789,384.29,452.789z"/>
<path d="M183.438,86.494c6.411,0,11.61-5.199,11.61-11.61V54.381c0-6.411-5.199-11.61-11.61-11.61c-6.411,0-11.61,5.199-11.61,11.61
	v20.503C171.828,81.295,177.027,86.494,183.438,86.494z"/>
<path d="M139.32,86.494c6.411,0,11.61-5.199,11.61-11.61V54.381c0-6.411-5.199-11.61-11.61-11.61c-6.411,0-11.61,5.199-11.61,11.61
	v20.503C127.71,81.295,132.909,86.494,139.32,86.494z"/>
</svg>